<?xml version="1.0" encoding="UTF-8"?><svg id="Layer_1" xmlns="http://www.w3.org/2000/svg" viewBox="0 0 435.95 434.56"><defs><style>.cls-1{fill:#b74e91;}.cls-1,.cls-2,.cls-3{stroke-width:0px;}.cls-2{fill:#312450;}.cls-3{fill:#5e42a6;}</style></defs><path class="cls-1" d="m117.62,386c.74.35,1.48.71,2.22,1.06,20.16,4.54,30.3,6.82,30.4,6.83,0,0,0,0,0,0h0c23.51,3.14,28.91-.58,44.26,4.83,4.7,1.66,16.97,5.99,26.47,15.36,2.24,2.21,9.22,9.53,12.82,13.31,2.88,3.02,5.23,5.51,6.8,7.17,4.07-3.67,10.81-10.75,15.25-21.67,4.76-11.69,4.4-21.7,4.14-27.33-.29-6.22-1.32-28.65-18.24-46.5-17.52-18.49-41.51-20.9-49.07-21.67-1.29-.13-7.72-.74-16.1-1.21-13.98-.79-17.09-.28-23.6-1.17,0,0-10.54-1.43-22.63-6.96-39.17-17.89-47.73-54.44-47.75-54.5h0c-8.72-29.05,2.5-57.43,7.52-69.67,3.73-9.1,8.6-17.75,8.6-17.75,2.28-4.55,4.09-6.35,3.98-6.46-.44-.43-34.99,16.7-37.97,43.21-1.66,14.75,3.71,56.68,3.71,56.68,0,0,0,0,0,0,0,0,0,0,0,0-8.11,64.86,16.09,78.98,16.09,78.98,9.86,20.99,22.46,36.61,33.09,47.44Z"/><path class="cls-2" d="m241.73,282.39c13.25-8.78,31.94-23.5,48.72-46.42,23.52-32.11,31.4-64.06,34.39-81.74,6.62,14.9,10.04,27.91,11.92,37.17,2.73,13.46,5.68,27.88,2.5,46.17-1.54,8.89-3.61,20.78-12.5,32.83-3.22,4.36-14.31,18.9-34.5,23.67-26.54,6.26-47.54-9.37-50.53-11.67Z"/><path class="cls-1" d="m101.46,161.32c5.04-5.33,28.05-28.51,64.71-30.09,32.29-1.4,62.55,14.5,80.17,39.33,17.86,25.18,17.13,51.56,16.83,57.5-1.46,29.07-16.42,48.36-21.44,54.33,13.11-7.9,36.79-24.52,56.11-54.16,19.56-30.01,25.13-58.77,27-74-2.9-7.5-7.12-16.5-13.33-26-8.01-12.25-16.71-21.29-23.78-27.6-5.15-2.05-12.39-4.89-21.11-8.18-29.34-11.07-35.4-12.14-40.89-12.44-9.83-.54-8.16,1.9-29.33,4.89-28.87,4.07-35.59.04-44,7.11-8.79,7.4-3.19,13.28-13.03,24.81-11.39,13.35-24.4,10.37-32.11,23.69-2.17,3.74-5.36,10.63-5.8,20.82Z"/><path class="cls-3" d="m119.84,387.06c-60.55-62.71-67.47-158.31-19.67-224,41.18-56.6,116.39-81.96,187.67-62.33-9.36-8.92-53.42-49-120.17-48.17-89.63,1.11-138.06,74.97-141.33,80.17-4.51,7.15-46.28,75.97-14.5,155,29.52,73.4,98.67,96.41,108,99.33Z"/></svg>